<mxfile host="app.diagrams.net" modified="2021-11-17T14:36:15.964Z" agent="5.0 (X11; Linux x86_64) AppleWebKit/537.36 (KHTML, like Gecko) Chrome/96.0.4664.45 Safari/537.36" etag="xXJ_nxgNibgz23j9Gc-E" version="15.7.4" type="github">
  <diagram id="-Rr6O7RCSMsCnRUJBeO_" name="Page-1">
    <mxGraphModel dx="1231" dy="1807" grid="1" gridSize="10" guides="1" tooltips="1" connect="1" arrows="1" fold="1" page="1" pageScale="1" pageWidth="850" pageHeight="1100" math="0" shadow="0">
      <root>
        <mxCell id="0" />
        <mxCell id="1" parent="0" />
        <mxCell id="x6s88HMSAjHG18ij0UEw-70" style="edgeStyle=orthogonalEdgeStyle;rounded=0;orthogonalLoop=1;jettySize=auto;html=1;endArrow=none;endFill=0;" edge="1" parent="1" source="x6s88HMSAjHG18ij0UEw-2" target="x6s88HMSAjHG18ij0UEw-68">
          <mxGeometry relative="1" as="geometry" />
        </mxCell>
        <mxCell id="x6s88HMSAjHG18ij0UEw-2" value="User" style="rounded=0;whiteSpace=wrap;html=1;" vertex="1" parent="1">
          <mxGeometry x="230" y="130" width="70" height="30" as="geometry" />
        </mxCell>
        <mxCell id="x6s88HMSAjHG18ij0UEw-5" value="#_id" style="ellipse;whiteSpace=wrap;html=1;" vertex="1" parent="1">
          <mxGeometry x="200" y="50" width="80" height="30" as="geometry" />
        </mxCell>
        <mxCell id="x6s88HMSAjHG18ij0UEw-6" value="user_name" style="ellipse;whiteSpace=wrap;html=1;" vertex="1" parent="1">
          <mxGeometry x="130" y="68" width="71" height="33" as="geometry" />
        </mxCell>
        <mxCell id="x6s88HMSAjHG18ij0UEw-7" value="user_mob" style="ellipse;whiteSpace=wrap;html=1;" vertex="1" parent="1">
          <mxGeometry x="123" y="110" width="77" height="29" as="geometry" />
        </mxCell>
        <mxCell id="x6s88HMSAjHG18ij0UEw-8" value="user_email" style="ellipse;whiteSpace=wrap;html=1;" vertex="1" parent="1">
          <mxGeometry x="124" y="150" width="77" height="30" as="geometry" />
        </mxCell>
        <mxCell id="x6s88HMSAjHG18ij0UEw-9" value="user_address" style="ellipse;whiteSpace=wrap;html=1;" vertex="1" parent="1">
          <mxGeometry x="160" y="190" width="80" height="30" as="geometry" />
        </mxCell>
        <mxCell id="x6s88HMSAjHG18ij0UEw-10" value="" style="endArrow=none;html=1;rounded=0;exitX=0.5;exitY=1;exitDx=0;exitDy=0;entryX=0.5;entryY=0;entryDx=0;entryDy=0;" edge="1" parent="1" source="x6s88HMSAjHG18ij0UEw-5" target="x6s88HMSAjHG18ij0UEw-2">
          <mxGeometry width="50" height="50" relative="1" as="geometry">
            <mxPoint x="400" y="280" as="sourcePoint" />
            <mxPoint x="450" y="230" as="targetPoint" />
          </mxGeometry>
        </mxCell>
        <mxCell id="x6s88HMSAjHG18ij0UEw-11" value="" style="endArrow=none;html=1;rounded=0;exitX=1;exitY=1;exitDx=0;exitDy=0;entryX=0.157;entryY=-0.067;entryDx=0;entryDy=0;entryPerimeter=0;" edge="1" parent="1" source="x6s88HMSAjHG18ij0UEw-6" target="x6s88HMSAjHG18ij0UEw-2">
          <mxGeometry width="50" height="50" relative="1" as="geometry">
            <mxPoint x="209" y="86" as="sourcePoint" />
            <mxPoint x="234" y="136" as="targetPoint" />
          </mxGeometry>
        </mxCell>
        <mxCell id="x6s88HMSAjHG18ij0UEw-13" value="" style="endArrow=none;html=1;rounded=0;entryX=0.5;entryY=1;entryDx=0;entryDy=0;" edge="1" parent="1" source="x6s88HMSAjHG18ij0UEw-9" target="x6s88HMSAjHG18ij0UEw-2">
          <mxGeometry width="50" height="50" relative="1" as="geometry">
            <mxPoint x="369" y="110" as="sourcePoint" />
            <mxPoint x="394" y="160" as="targetPoint" />
          </mxGeometry>
        </mxCell>
        <mxCell id="x6s88HMSAjHG18ij0UEw-14" value="" style="endArrow=none;html=1;rounded=0;exitX=1;exitY=0.5;exitDx=0;exitDy=0;entryX=0;entryY=0.75;entryDx=0;entryDy=0;" edge="1" parent="1" source="x6s88HMSAjHG18ij0UEw-8" target="x6s88HMSAjHG18ij0UEw-2">
          <mxGeometry width="50" height="50" relative="1" as="geometry">
            <mxPoint x="333" y="151" as="sourcePoint" />
            <mxPoint x="358" y="201" as="targetPoint" />
          </mxGeometry>
        </mxCell>
        <mxCell id="x6s88HMSAjHG18ij0UEw-15" value="" style="endArrow=none;html=1;rounded=0;exitX=1;exitY=0.5;exitDx=0;exitDy=0;entryX=0;entryY=0.25;entryDx=0;entryDy=0;" edge="1" parent="1" source="x6s88HMSAjHG18ij0UEw-7" target="x6s88HMSAjHG18ij0UEw-2">
          <mxGeometry width="50" height="50" relative="1" as="geometry">
            <mxPoint x="300" y="60" as="sourcePoint" />
            <mxPoint x="325" y="110" as="targetPoint" />
          </mxGeometry>
        </mxCell>
        <mxCell id="x6s88HMSAjHG18ij0UEw-30" value="Customer" style="rounded=0;whiteSpace=wrap;html=1;" vertex="1" parent="1">
          <mxGeometry x="218.5" y="360" width="70" height="30" as="geometry" />
        </mxCell>
        <mxCell id="x6s88HMSAjHG18ij0UEw-31" value="#cus_id" style="ellipse;whiteSpace=wrap;html=1;" vertex="1" parent="1">
          <mxGeometry x="170" y="267" width="80" height="30" as="geometry" />
        </mxCell>
        <mxCell id="x6s88HMSAjHG18ij0UEw-32" value="cus_name" style="ellipse;whiteSpace=wrap;html=1;" vertex="1" parent="1">
          <mxGeometry x="118.5" y="298" width="71" height="33" as="geometry" />
        </mxCell>
        <mxCell id="x6s88HMSAjHG18ij0UEw-33" value="cus_mobile" style="ellipse;whiteSpace=wrap;html=1;" vertex="1" parent="1">
          <mxGeometry x="111.5" y="340" width="77" height="29" as="geometry" />
        </mxCell>
        <mxCell id="x6s88HMSAjHG18ij0UEw-34" value="cus_email" style="ellipse;whiteSpace=wrap;html=1;" vertex="1" parent="1">
          <mxGeometry x="112.5" y="380" width="77" height="30" as="geometry" />
        </mxCell>
        <mxCell id="x6s88HMSAjHG18ij0UEw-35" value="cus_address" style="ellipse;whiteSpace=wrap;html=1;" vertex="1" parent="1">
          <mxGeometry x="148.5" y="420" width="80" height="30" as="geometry" />
        </mxCell>
        <mxCell id="x6s88HMSAjHG18ij0UEw-36" value="" style="endArrow=none;html=1;rounded=0;exitX=0.5;exitY=1;exitDx=0;exitDy=0;entryX=0.5;entryY=0;entryDx=0;entryDy=0;" edge="1" source="x6s88HMSAjHG18ij0UEw-31" target="x6s88HMSAjHG18ij0UEw-30" parent="1">
          <mxGeometry width="50" height="50" relative="1" as="geometry">
            <mxPoint x="388.5" y="510" as="sourcePoint" />
            <mxPoint x="438.5" y="460" as="targetPoint" />
          </mxGeometry>
        </mxCell>
        <mxCell id="x6s88HMSAjHG18ij0UEw-37" value="" style="endArrow=none;html=1;rounded=0;exitX=1;exitY=1;exitDx=0;exitDy=0;entryX=0.157;entryY=-0.067;entryDx=0;entryDy=0;entryPerimeter=0;" edge="1" source="x6s88HMSAjHG18ij0UEw-32" target="x6s88HMSAjHG18ij0UEw-30" parent="1">
          <mxGeometry width="50" height="50" relative="1" as="geometry">
            <mxPoint x="197.5" y="316" as="sourcePoint" />
            <mxPoint x="222.5" y="366" as="targetPoint" />
          </mxGeometry>
        </mxCell>
        <mxCell id="x6s88HMSAjHG18ij0UEw-38" value="" style="endArrow=none;html=1;rounded=0;entryX=0.5;entryY=1;entryDx=0;entryDy=0;" edge="1" source="x6s88HMSAjHG18ij0UEw-35" target="x6s88HMSAjHG18ij0UEw-30" parent="1">
          <mxGeometry width="50" height="50" relative="1" as="geometry">
            <mxPoint x="357.5" y="340" as="sourcePoint" />
            <mxPoint x="382.5" y="390" as="targetPoint" />
          </mxGeometry>
        </mxCell>
        <mxCell id="x6s88HMSAjHG18ij0UEw-39" value="" style="endArrow=none;html=1;rounded=0;exitX=1;exitY=0.5;exitDx=0;exitDy=0;entryX=0;entryY=0.75;entryDx=0;entryDy=0;" edge="1" source="x6s88HMSAjHG18ij0UEw-34" target="x6s88HMSAjHG18ij0UEw-30" parent="1">
          <mxGeometry width="50" height="50" relative="1" as="geometry">
            <mxPoint x="321.5" y="381" as="sourcePoint" />
            <mxPoint x="346.5" y="431" as="targetPoint" />
          </mxGeometry>
        </mxCell>
        <mxCell id="x6s88HMSAjHG18ij0UEw-40" value="" style="endArrow=none;html=1;rounded=0;exitX=1;exitY=0.5;exitDx=0;exitDy=0;entryX=0;entryY=0.25;entryDx=0;entryDy=0;" edge="1" source="x6s88HMSAjHG18ij0UEw-33" target="x6s88HMSAjHG18ij0UEw-30" parent="1">
          <mxGeometry width="50" height="50" relative="1" as="geometry">
            <mxPoint x="288.5" y="290" as="sourcePoint" />
            <mxPoint x="313.5" y="340" as="targetPoint" />
          </mxGeometry>
        </mxCell>
        <mxCell id="x6s88HMSAjHG18ij0UEw-41" value="Roles" style="rounded=0;whiteSpace=wrap;html=1;" vertex="1" parent="1">
          <mxGeometry x="530" y="130" width="70" height="30" as="geometry" />
        </mxCell>
        <mxCell id="x6s88HMSAjHG18ij0UEw-42" value="#role_id" style="ellipse;whiteSpace=wrap;html=1;" vertex="1" parent="1">
          <mxGeometry x="640" y="80" width="80" height="30" as="geometry" />
        </mxCell>
        <mxCell id="x6s88HMSAjHG18ij0UEw-43" value="role_name" style="ellipse;whiteSpace=wrap;html=1;" vertex="1" parent="1">
          <mxGeometry x="649" y="121" width="80" height="30" as="geometry" />
        </mxCell>
        <mxCell id="x6s88HMSAjHG18ij0UEw-44" value="role_desc" style="ellipse;whiteSpace=wrap;html=1;" vertex="1" parent="1">
          <mxGeometry x="649" y="174" width="80" height="30" as="geometry" />
        </mxCell>
        <mxCell id="x6s88HMSAjHG18ij0UEw-45" value="Login" style="rounded=0;whiteSpace=wrap;html=1;" vertex="1" parent="1">
          <mxGeometry x="357.5" y="20" width="70" height="30" as="geometry" />
        </mxCell>
        <mxCell id="x6s88HMSAjHG18ij0UEw-46" value="#login_id" style="ellipse;whiteSpace=wrap;html=1;" vertex="1" parent="1">
          <mxGeometry x="281" y="-30" width="80" height="30" as="geometry" />
        </mxCell>
        <mxCell id="x6s88HMSAjHG18ij0UEw-47" value="login_username" style="ellipse;whiteSpace=wrap;html=1;" vertex="1" parent="1">
          <mxGeometry x="372" y="-50" width="104" height="33" as="geometry" />
        </mxCell>
        <mxCell id="x6s88HMSAjHG18ij0UEw-48" value="login_password" style="ellipse;whiteSpace=wrap;html=1;" vertex="1" parent="1">
          <mxGeometry x="450" y="-10" width="103" height="30" as="geometry" />
        </mxCell>
        <mxCell id="x6s88HMSAjHG18ij0UEw-49" value="Permission" style="rounded=0;whiteSpace=wrap;html=1;" vertex="1" parent="1">
          <mxGeometry x="414" y="216" width="70" height="30" as="geometry" />
        </mxCell>
        <mxCell id="x6s88HMSAjHG18ij0UEw-50" value="#per_id" style="ellipse;whiteSpace=wrap;html=1;" vertex="1" parent="1">
          <mxGeometry x="514" y="180" width="80" height="30" as="geometry" />
        </mxCell>
        <mxCell id="x6s88HMSAjHG18ij0UEw-51" value="per_name" style="ellipse;whiteSpace=wrap;html=1;" vertex="1" parent="1">
          <mxGeometry x="520" y="237" width="80" height="30" as="geometry" />
        </mxCell>
        <mxCell id="x6s88HMSAjHG18ij0UEw-52" value="Booking" style="rounded=0;whiteSpace=wrap;html=1;" vertex="1" parent="1">
          <mxGeometry x="344.5" y="390" width="70" height="30" as="geometry" />
        </mxCell>
        <mxCell id="x6s88HMSAjHG18ij0UEw-53" value="#book_id" style="ellipse;whiteSpace=wrap;html=1;" vertex="1" parent="1">
          <mxGeometry x="337" y="450" width="80" height="30" as="geometry" />
        </mxCell>
        <mxCell id="x6s88HMSAjHG18ij0UEw-54" value="book_title" style="ellipse;whiteSpace=wrap;html=1;" vertex="1" parent="1">
          <mxGeometry x="427" y="460" width="80" height="30" as="geometry" />
        </mxCell>
        <mxCell id="x6s88HMSAjHG18ij0UEw-55" value="book_type" style="ellipse;whiteSpace=wrap;html=1;" vertex="1" parent="1">
          <mxGeometry x="440" y="360" width="80" height="30" as="geometry" />
        </mxCell>
        <mxCell id="x6s88HMSAjHG18ij0UEw-56" value="book_desc&amp;nbsp;" style="ellipse;whiteSpace=wrap;html=1;" vertex="1" parent="1">
          <mxGeometry x="440" y="410" width="80" height="30" as="geometry" />
        </mxCell>
        <mxCell id="x6s88HMSAjHG18ij0UEw-57" value="" style="endArrow=none;html=1;rounded=0;exitX=0.414;exitY=1;exitDx=0;exitDy=0;exitPerimeter=0;" edge="1" parent="1" source="x6s88HMSAjHG18ij0UEw-52" target="x6s88HMSAjHG18ij0UEw-53">
          <mxGeometry width="50" height="50" relative="1" as="geometry">
            <mxPoint x="487" y="370" as="sourcePoint" />
            <mxPoint x="537" y="320" as="targetPoint" />
          </mxGeometry>
        </mxCell>
        <mxCell id="x6s88HMSAjHG18ij0UEw-58" value="" style="endArrow=none;html=1;rounded=0;exitX=0.75;exitY=1;exitDx=0;exitDy=0;" edge="1" parent="1" source="x6s88HMSAjHG18ij0UEw-52" target="x6s88HMSAjHG18ij0UEw-54">
          <mxGeometry width="50" height="50" relative="1" as="geometry">
            <mxPoint x="413.32" y="420" as="sourcePoint" />
            <mxPoint x="407.00076042095094" y="450.0332226321507" as="targetPoint" />
          </mxGeometry>
        </mxCell>
        <mxCell id="x6s88HMSAjHG18ij0UEw-59" value="" style="endArrow=none;html=1;rounded=0;" edge="1" parent="1" source="x6s88HMSAjHG18ij0UEw-56" target="x6s88HMSAjHG18ij0UEw-52">
          <mxGeometry width="50" height="50" relative="1" as="geometry">
            <mxPoint x="541.32" y="434" as="sourcePoint" />
            <mxPoint x="535.000760420951" y="464.0332226321507" as="targetPoint" />
          </mxGeometry>
        </mxCell>
        <mxCell id="x6s88HMSAjHG18ij0UEw-60" value="" style="endArrow=none;html=1;rounded=0;" edge="1" parent="1" source="x6s88HMSAjHG18ij0UEw-55" target="x6s88HMSAjHG18ij0UEw-52">
          <mxGeometry width="50" height="50" relative="1" as="geometry">
            <mxPoint x="620.32" y="431" as="sourcePoint" />
            <mxPoint x="614.000760420951" y="461.0332226321507" as="targetPoint" />
          </mxGeometry>
        </mxCell>
        <mxCell id="x6s88HMSAjHG18ij0UEw-62" value="" style="endArrow=none;html=1;rounded=0;" edge="1" parent="1" source="x6s88HMSAjHG18ij0UEw-49" target="x6s88HMSAjHG18ij0UEw-50">
          <mxGeometry width="50" height="50" relative="1" as="geometry">
            <mxPoint x="314" y="217" as="sourcePoint" />
            <mxPoint x="364" y="167" as="targetPoint" />
          </mxGeometry>
        </mxCell>
        <mxCell id="x6s88HMSAjHG18ij0UEw-63" value="" style="endArrow=none;html=1;rounded=0;exitX=1;exitY=0.5;exitDx=0;exitDy=0;" edge="1" parent="1" source="x6s88HMSAjHG18ij0UEw-49" target="x6s88HMSAjHG18ij0UEw-51">
          <mxGeometry width="50" height="50" relative="1" as="geometry">
            <mxPoint x="488" y="276.88" as="sourcePoint" />
            <mxPoint x="528.4788475199068" y="263.0015379931748" as="targetPoint" />
          </mxGeometry>
        </mxCell>
        <mxCell id="x6s88HMSAjHG18ij0UEw-64" value="" style="endArrow=none;html=1;rounded=0;" edge="1" parent="1" source="x6s88HMSAjHG18ij0UEw-41" target="x6s88HMSAjHG18ij0UEw-42">
          <mxGeometry width="50" height="50" relative="1" as="geometry">
            <mxPoint x="670" y="240" as="sourcePoint" />
            <mxPoint x="720" y="190" as="targetPoint" />
          </mxGeometry>
        </mxCell>
        <mxCell id="x6s88HMSAjHG18ij0UEw-65" value="" style="endArrow=none;html=1;rounded=0;exitX=1;exitY=0.5;exitDx=0;exitDy=0;entryX=0;entryY=1;entryDx=0;entryDy=0;" edge="1" parent="1" source="x6s88HMSAjHG18ij0UEw-41" target="x6s88HMSAjHG18ij0UEw-43">
          <mxGeometry width="50" height="50" relative="1" as="geometry">
            <mxPoint x="664" y="171.70000000000002" as="sourcePoint" />
            <mxPoint x="731.4650187898856" y="123.00439828019964" as="targetPoint" />
          </mxGeometry>
        </mxCell>
        <mxCell id="x6s88HMSAjHG18ij0UEw-67" value="" style="endArrow=none;html=1;rounded=0;" edge="1" parent="1" source="x6s88HMSAjHG18ij0UEw-41" target="x6s88HMSAjHG18ij0UEw-44">
          <mxGeometry width="50" height="50" relative="1" as="geometry">
            <mxPoint x="669" y="261.70000000000005" as="sourcePoint" />
            <mxPoint x="736.4650187898856" y="213.00439828019964" as="targetPoint" />
          </mxGeometry>
        </mxCell>
        <mxCell id="x6s88HMSAjHG18ij0UEw-71" style="edgeStyle=orthogonalEdgeStyle;rounded=0;orthogonalLoop=1;jettySize=auto;html=1;entryX=0;entryY=0.5;entryDx=0;entryDy=0;endArrow=none;endFill=0;" edge="1" parent="1" source="x6s88HMSAjHG18ij0UEw-68" target="x6s88HMSAjHG18ij0UEw-41">
          <mxGeometry relative="1" as="geometry" />
        </mxCell>
        <mxCell id="x6s88HMSAjHG18ij0UEw-75" style="edgeStyle=orthogonalEdgeStyle;rounded=0;orthogonalLoop=1;jettySize=auto;html=1;endArrow=none;endFill=0;" edge="1" parent="1" source="x6s88HMSAjHG18ij0UEw-68" target="x6s88HMSAjHG18ij0UEw-45">
          <mxGeometry relative="1" as="geometry" />
        </mxCell>
        <mxCell id="x6s88HMSAjHG18ij0UEw-76" style="edgeStyle=orthogonalEdgeStyle;rounded=0;orthogonalLoop=1;jettySize=auto;html=1;entryX=0;entryY=0.75;entryDx=0;entryDy=0;endArrow=none;endFill=0;" edge="1" parent="1" source="x6s88HMSAjHG18ij0UEw-68" target="x6s88HMSAjHG18ij0UEw-49">
          <mxGeometry relative="1" as="geometry" />
        </mxCell>
        <mxCell id="x6s88HMSAjHG18ij0UEw-68" value="Has" style="rhombus;whiteSpace=wrap;html=1;" vertex="1" parent="1">
          <mxGeometry x="355" y="115" width="75" height="60" as="geometry" />
        </mxCell>
        <mxCell id="x6s88HMSAjHG18ij0UEw-78" style="edgeStyle=orthogonalEdgeStyle;rounded=0;orthogonalLoop=1;jettySize=auto;html=1;endArrow=none;endFill=0;" edge="1" parent="1" source="x6s88HMSAjHG18ij0UEw-69" target="x6s88HMSAjHG18ij0UEw-30">
          <mxGeometry relative="1" as="geometry" />
        </mxCell>
        <mxCell id="x6s88HMSAjHG18ij0UEw-79" style="edgeStyle=orthogonalEdgeStyle;rounded=0;orthogonalLoop=1;jettySize=auto;html=1;endArrow=none;endFill=0;" edge="1" parent="1" source="x6s88HMSAjHG18ij0UEw-69" target="x6s88HMSAjHG18ij0UEw-52">
          <mxGeometry relative="1" as="geometry" />
        </mxCell>
        <mxCell id="x6s88HMSAjHG18ij0UEw-81" style="edgeStyle=orthogonalEdgeStyle;rounded=0;orthogonalLoop=1;jettySize=auto;html=1;entryX=0.5;entryY=1;entryDx=0;entryDy=0;endArrow=none;endFill=0;" edge="1" parent="1" source="x6s88HMSAjHG18ij0UEw-69" target="x6s88HMSAjHG18ij0UEw-2">
          <mxGeometry relative="1" as="geometry" />
        </mxCell>
        <mxCell id="x6s88HMSAjHG18ij0UEw-91" style="edgeStyle=orthogonalEdgeStyle;rounded=0;orthogonalLoop=1;jettySize=auto;html=1;endArrow=none;endFill=0;" edge="1" parent="1" source="x6s88HMSAjHG18ij0UEw-69" target="x6s88HMSAjHG18ij0UEw-82">
          <mxGeometry relative="1" as="geometry" />
        </mxCell>
        <mxCell id="x6s88HMSAjHG18ij0UEw-69" value="Manage" style="rhombus;whiteSpace=wrap;html=1;" vertex="1" parent="1">
          <mxGeometry x="342" y="300" width="75" height="60" as="geometry" />
        </mxCell>
        <mxCell id="x6s88HMSAjHG18ij0UEw-72" value="" style="endArrow=none;html=1;rounded=0;exitX=0.25;exitY=0;exitDx=0;exitDy=0;" edge="1" parent="1" source="x6s88HMSAjHG18ij0UEw-45" target="x6s88HMSAjHG18ij0UEw-46">
          <mxGeometry width="50" height="50" relative="1" as="geometry">
            <mxPoint x="488" y="146" as="sourcePoint" />
            <mxPoint x="538" y="96" as="targetPoint" />
          </mxGeometry>
        </mxCell>
        <mxCell id="x6s88HMSAjHG18ij0UEw-73" value="" style="endArrow=none;html=1;rounded=0;exitX=0.25;exitY=0;exitDx=0;exitDy=0;" edge="1" parent="1" target="x6s88HMSAjHG18ij0UEw-47">
          <mxGeometry width="50" height="50" relative="1" as="geometry">
            <mxPoint x="410.51" y="19.25" as="sourcePoint" />
            <mxPoint x="375.99800993557756" y="-10.000311455403335" as="targetPoint" />
          </mxGeometry>
        </mxCell>
        <mxCell id="x6s88HMSAjHG18ij0UEw-74" value="" style="endArrow=none;html=1;rounded=0;entryX=1;entryY=0.25;entryDx=0;entryDy=0;" edge="1" parent="1" source="x6s88HMSAjHG18ij0UEw-48" target="x6s88HMSAjHG18ij0UEw-45">
          <mxGeometry width="50" height="50" relative="1" as="geometry">
            <mxPoint x="487.9094035697192" y="6.346473661355276" as="sourcePoint" />
            <mxPoint x="438.99800993557756" y="38.999688544596665" as="targetPoint" />
          </mxGeometry>
        </mxCell>
        <mxCell id="x6s88HMSAjHG18ij0UEw-80" style="edgeStyle=orthogonalEdgeStyle;rounded=0;orthogonalLoop=1;jettySize=auto;html=1;exitX=0.5;exitY=1;exitDx=0;exitDy=0;entryX=0.25;entryY=1;entryDx=0;entryDy=0;endArrow=none;endFill=0;" edge="1" parent="1" source="x6s88HMSAjHG18ij0UEw-52" target="x6s88HMSAjHG18ij0UEw-52">
          <mxGeometry relative="1" as="geometry" />
        </mxCell>
        <mxCell id="x6s88HMSAjHG18ij0UEw-82" value="Package" style="rounded=0;whiteSpace=wrap;html=1;" vertex="1" parent="1">
          <mxGeometry x="580.5" y="363" width="70" height="30" as="geometry" />
        </mxCell>
        <mxCell id="x6s88HMSAjHG18ij0UEw-83" value="#pak_id" style="ellipse;whiteSpace=wrap;html=1;" vertex="1" parent="1">
          <mxGeometry x="690.5" y="313" width="80" height="30" as="geometry" />
        </mxCell>
        <mxCell id="x6s88HMSAjHG18ij0UEw-84" value="pak_name" style="ellipse;whiteSpace=wrap;html=1;" vertex="1" parent="1">
          <mxGeometry x="699.5" y="354" width="80" height="30" as="geometry" />
        </mxCell>
        <mxCell id="x6s88HMSAjHG18ij0UEw-85" value="pak_desc" style="ellipse;whiteSpace=wrap;html=1;" vertex="1" parent="1">
          <mxGeometry x="699.5" y="407" width="80" height="30" as="geometry" />
        </mxCell>
        <mxCell id="x6s88HMSAjHG18ij0UEw-86" value="" style="endArrow=none;html=1;rounded=0;" edge="1" source="x6s88HMSAjHG18ij0UEw-82" target="x6s88HMSAjHG18ij0UEw-83" parent="1">
          <mxGeometry width="50" height="50" relative="1" as="geometry">
            <mxPoint x="720.5" y="473" as="sourcePoint" />
            <mxPoint x="770.5" y="423" as="targetPoint" />
          </mxGeometry>
        </mxCell>
        <mxCell id="x6s88HMSAjHG18ij0UEw-87" value="" style="endArrow=none;html=1;rounded=0;exitX=1;exitY=0.5;exitDx=0;exitDy=0;entryX=0;entryY=1;entryDx=0;entryDy=0;" edge="1" source="x6s88HMSAjHG18ij0UEw-82" target="x6s88HMSAjHG18ij0UEw-84" parent="1">
          <mxGeometry width="50" height="50" relative="1" as="geometry">
            <mxPoint x="714.5" y="404.70000000000005" as="sourcePoint" />
            <mxPoint x="781.9650187898856" y="356.00439828019967" as="targetPoint" />
          </mxGeometry>
        </mxCell>
        <mxCell id="x6s88HMSAjHG18ij0UEw-88" value="" style="endArrow=none;html=1;rounded=0;" edge="1" source="x6s88HMSAjHG18ij0UEw-82" target="x6s88HMSAjHG18ij0UEw-85" parent="1">
          <mxGeometry width="50" height="50" relative="1" as="geometry">
            <mxPoint x="719.5" y="494.70000000000005" as="sourcePoint" />
            <mxPoint x="786.9650187898856" y="446.00439828019967" as="targetPoint" />
          </mxGeometry>
        </mxCell>
        <mxCell id="x6s88HMSAjHG18ij0UEw-89" value="pak_type" style="ellipse;whiteSpace=wrap;html=1;" vertex="1" parent="1">
          <mxGeometry x="616" y="434" width="80" height="30" as="geometry" />
        </mxCell>
        <mxCell id="x6s88HMSAjHG18ij0UEw-90" value="" style="endArrow=none;html=1;rounded=0;entryX=0.75;entryY=1;entryDx=0;entryDy=0;exitX=0.5;exitY=0;exitDx=0;exitDy=0;" edge="1" parent="1" source="x6s88HMSAjHG18ij0UEw-89" target="x6s88HMSAjHG18ij0UEw-82">
          <mxGeometry width="50" height="50" relative="1" as="geometry">
            <mxPoint x="450" y="360" as="sourcePoint" />
            <mxPoint x="500" y="310" as="targetPoint" />
          </mxGeometry>
        </mxCell>
      </root>
    </mxGraphModel>
  </diagram>
</mxfile>
